<svg version="1.1" id="Layer_1" xmlns="http://www.w3.org/2000/svg" xmlns:xlink="http://www.w3.org/1999/xlink" x="0px" y="0px"
	 width="100%" viewBox="0 0 400 400" enable-background="new 0 0 400 400" xml:space="preserve">
<!-- Top-left puzzle piece -->
<path fill="#000000" opacity="1.000000" stroke="none" 
	d="
M50,50 
L50,150 
C50,155 52,160 56,162
C60,164 65,162 70,160
C75,158 80,160 85,162
C90,164 92,169 90,174
C88,179 85,182 80,185
C75,188 70,185 65,182
C60,179 55,182 50,185
L50,200
L150,200
C155,200 160,198 162,194
C164,190 162,185 160,180
C158,175 160,170 162,165
C164,160 169,158 174,160
C179,162 182,165 185,170
C188,175 185,180 182,185
C179,190 182,195 185,200
L200,200
L200,50
L50,50
z"/>

<!-- Top-right puzzle piece -->
<path fill="#000000" opacity="1.000000" stroke="none" 
	d="
M200,50 
L200,200
L215,200
C220,200 225,198 230,200
C235,202 238,207 240,212
C242,217 240,222 238,227
C236,232 231,235 226,238
C221,241 216,238 211,235
C206,232 201,235 200,240
L200,350
L350,350
L350,50
L200,50
z"/>

<!-- Bottom-right puzzle piece -->
<path fill="#000000" opacity="1.000000" stroke="none" 
	d="
M350,350 
L200,350
L200,240
C200,235 198,230 194,228
C190,226 185,228 180,230
C175,232 170,230 165,228
C160,226 158,221 160,216
C162,211 165,208 170,205
C175,202 180,205 185,208
C190,211 195,208 200,205
L200,200
L350,200
L350,350
z"/>

<!-- Bottom-left puzzle piece -->
<path fill="#000000" opacity="1.000000" stroke="none" 
	d="
M50,200 
L185,200
C190,200 195,202 200,200
C205,198 208,193 210,188
C212,183 210,178 208,173
C206,168 201,165 196,162
C191,159 186,162 181,165
C176,168 171,165 170,160
L170,200
L50,200
L50,350
L200,350
L200,240
L185,240
C180,240 175,242 170,240
C165,238 162,233 160,228
C158,223 160,218 162,213
C164,208 169,205 174,202
C179,199 184,202 189,205
C194,208 199,205 200,200
L185,200
L50,200
z"/>
</svg>