<svg version="1.1" id="Layer_1" xmlns="http://www.w3.org/2000/svg" xmlns:xlink="http://www.w3.org/1999/xlink" x="0px" y="0px"
	 width="100%" viewBox="0 0 1024 672" enable-background="new 0 0 1024 672" xml:space="preserve">
<path fill="#000000" opacity="1.000000" stroke="none" 
	d="
M341.632507,558.596558 
	C346.457489,554.249878 351.793854,552.458923 357.922577,552.607117 
	C364.085083,552.756042 370.259552,552.479736 376.418152,552.694397 
	C380.298065,552.829651 381.686462,551.366943 381.757507,547.487671 
	C381.903320,539.523865 381.077881,531.546936 382.631500,523.588013 
	C384.490875,514.062683 393.663971,505.832886 403.300018,505.659027 
	C406.132263,505.607941 408.966095,505.644501 411.799194,505.641571 
	C420.935760,505.632141 420.949036,505.632263 420.960236,496.230621 
	C420.983215,476.898834 421.096924,457.566284 420.957855,438.235596 
	C420.891724,429.040222 421.034271,419.922577 424.070770,411.116577 
	C425.300232,407.551208 423.267456,404.566895 422.197510,401.565552 
	C407.561707,360.511414 392.736938,319.524719 378.084778,278.476379 
	C376.926056,275.230133 375.094971,273.231476 372.097046,271.651550 
	C351.109589,260.591095 338.337799,236.957443 341.060730,214.545120 
	C344.223602,188.511658 361.198730,169.091705 386.087006,163.236191 
	C399.738617,160.024323 412.885529,161.738449 425.278503,168.250214 
	C428.366119,169.872574 430.912323,169.954132 434.130280,168.691788 
	C473.932037,153.078323 513.786255,137.598511 553.626038,122.082085 
	C563.379944,118.283241 573.111816,114.426933 582.894592,110.704193 
	C585.811401,109.594215 588.017273,107.833282 589.910889,105.363663 
	C601.827576,89.822121 618.146667,84.180840 636.792664,87.110909 
	C655.367432,90.029793 668.304382,101.422333 674.157959,119.350159 
	C679.187866,134.755203 676.894592,149.663330 667.080322,162.926895 
	C665.189575,165.482193 664.229065,167.947891 664.236145,171.132172 
	C664.315613,206.795837 664.351074,242.459976 664.212463,278.123260 
	C664.195984,282.358887 665.320679,284.016785 669.774719,284.111908 
	C677.031799,284.266937 680.705933,288.532257 680.986633,296.657501 
	C681.228149,303.649170 681.304932,310.663605 681.018494,317.650085 
	C680.844666,321.888702 682.298828,324.694305 685.495239,327.485474 
	C697.665161,338.112518 709.145813,349.479309 720.145325,361.319885 
	C721.985901,363.301086 723.203003,365.622925 723.452393,368.428162 
	C724.294617,377.900757 724.438782,387.360992 723.370667,396.829041 
	C723.154907,398.741455 722.417175,400.343475 721.247009,401.796936 
	C713.624023,411.265625 706.164124,420.876099 697.845642,429.756073 
	C693.760437,434.116913 687.654968,434.784241 684.024231,431.548920 
	C680.528809,428.434113 680.548889,423.398224 684.270264,418.516541 
	C689.315735,411.898010 694.397156,405.303528 699.609558,398.816406 
	C706.263733,390.534912 705.475403,377.065857 697.757385,369.760529 
	C693.425232,365.660034 689.512024,361.092468 684.221313,357.403748 
	C681.737854,363.796722 678.685669,369.827148 671.403259,370.765778 
	C660.490112,372.172424 649.452454,371.978821 638.531494,370.779816 
	C631.375793,369.994171 628.140198,364.334167 625.774170,357.441956 
	C619.045044,363.329773 611.243591,368.030121 607.436401,375.282227 
	C604.348267,381.164551 604.070984,389.371582 608.374084,395.778107 
	C613.657715,403.644348 619.596802,411.074249 625.338196,418.627686 
	C629.045837,423.505493 629.234863,428.332825 625.641235,431.587677 
	C622.260071,434.650055 615.648315,434.295715 612.091187,430.166534 
	C604.159363,420.959229 594.989746,412.315216 589.274841,401.833099 
	C582.658936,389.698425 584.384521,375.696075 588.525879,362.602814 
	C589.391663,359.865570 592.510986,357.778046 594.748840,355.548676 
	C605.130920,345.205688 615.311462,334.642548 626.598267,325.259735 
	C628.419983,323.745300 628.684082,322.046783 628.678589,319.994263 
	C628.657959,312.328278 628.636902,304.661896 628.691711,296.996216 
	C628.751709,288.598938 631.675659,284.802460 639.962708,284.185455 
	C644.978455,283.812042 645.780945,281.792969 645.756226,277.365723 
	C645.586243,246.869049 645.671265,216.371017 645.654907,185.873413 
	C645.651733,179.930862 645.536926,179.863449 639.747864,181.093964 
	C625.261292,184.173172 611.937927,181.418518 599.998474,172.727692 
	C596.874939,170.454041 594.383789,170.160522 590.953613,171.976089 
	C575.505310,180.152756 559.945740,188.119904 544.398987,196.109406 
	C541.763672,197.463715 540.834595,199.569412 540.164978,202.382095 
	C531.246582,239.842575 507.646576,262.835480 470.578461,272.243713 
	C466.536560,273.269592 465.966644,274.740845 467.369720,278.496552 
	C480.178833,312.783234 492.837799,347.126099 505.504089,381.466003 
	C506.904510,385.262695 508.711884,388.659393 511.719604,391.531311 
	C522.439697,401.767365 527.183899,414.619659 527.262146,429.228516 
	C527.387146,452.559357 527.428589,475.892487 527.210632,499.221893 
	C527.163574,504.255066 528.686584,506.323517 533.767761,505.696930 
	C536.065918,505.413544 538.444824,505.831512 540.758545,505.619568 
	C554.250061,504.383728 565.893799,514.630005 566.278137,530.785889 
	C566.416809,536.615723 566.439575,542.454346 566.282593,548.282715 
	C566.195618,551.510559 567.375000,552.750793 570.639954,552.679626 
	C577.635925,552.527039 584.638062,552.606873 591.637146,552.660889 
	C604.520264,552.760315 614.285767,562.621765 614.334534,575.539795 
	C614.352783,580.372681 614.402222,585.206726 614.322510,590.038330 
	C614.234314,595.381836 611.774048,597.918213 606.423645,598.304810 
	C604.930542,598.412720 603.425232,598.364624 601.925476,598.364563 
	C516.432190,598.362183 430.938965,598.359070 345.445709,598.342468 
	C343.293060,598.342041 341.145477,598.471558 339.007294,597.809631 
	C335.915985,596.852600 334.135223,594.889038 334.085785,591.681946 
	C333.990784,585.518799 333.793335,579.337402 334.146545,573.192871 
	C334.473297,567.507996 337.034607,562.660828 341.632507,558.596558 
M471.628174,341.759705 
	C461.634033,315.203217 451.639862,288.646729 441.336578,261.268829 
	C434.943237,267.167603 428.458588,271.388489 421.179962,274.335846 
	C413.747040,277.345673 405.914124,278.406189 397.307831,278.788422 
	C410.633209,315.791779 423.696503,352.067322 437.070099,389.204529 
	C451.217651,377.428223 466.613831,373.764709 484.561829,376.510223 
	C479.960083,364.208740 475.901581,353.359467 471.628174,341.759705 
M439.500092,523.383423 
	C429.345276,523.389343 419.189575,523.318665 409.035950,523.431702 
	C403.457031,523.493774 400.438995,526.612793 400.353577,532.113831 
	C400.283783,536.607483 400.333130,541.103088 400.338715,545.597839 
	C400.347107,552.346191 400.599274,552.618896 407.369293,552.621094 
	C441.995575,552.632385 476.621857,552.629944 511.248138,552.632690 
	C521.735901,552.633545 532.225342,552.530823 542.710510,552.695007 
	C546.310425,552.751343 547.931274,551.636902 547.719177,547.853271 
	C547.495911,543.870544 547.677063,539.865417 547.675537,535.870056 
	C547.671387,525.012146 546.078186,523.382996 535.389465,523.381592 
	C503.759674,523.377380 472.129913,523.382507 439.500092,523.383423 
M535.023499,149.673019 
	C505.252716,161.361008 475.481964,173.049011 445.068634,184.989273 
	C452.805420,194.910736 455.597046,205.957825 457.640076,217.467957 
	C459.058502,217.007156 459.876709,216.853241 460.590973,216.493179 
	C487.752686,202.801147 514.899597,189.079910 542.060486,175.386230 
	C554.976013,168.874603 567.924927,162.428925 580.833008,155.902573 
	C582.480835,155.069412 585.120300,154.680450 584.165222,151.844025 
	C582.103455,145.720978 580.558777,139.502304 580.711060,131.857330 
	C565.029663,137.959686 550.380188,143.660477 535.023499,149.673019 
M417.971649,186.503632 
	C413.014648,183.603271 407.634613,181.796066 401.950287,181.465118 
	C385.332336,180.497604 372.656006,187.764481 364.858734,202.000305 
	C356.743439,216.816650 358.495514,231.762604 369.037323,244.943832 
	C378.939697,257.325500 392.238159,261.823853 407.763397,258.329468 
	C422.783539,254.948776 434.931641,241.155075 437.469147,225.356094 
	C439.822906,210.701248 432.198700,195.136536 417.971649,186.503632 
M508.115265,425.172699 
	C508.028900,424.851593 507.905304,424.535461 507.861572,424.208649 
	C505.549683,406.923126 490.008575,393.706177 472.851868,394.441376 
	C454.796234,395.215088 440.721893,409.104767 439.988983,426.873077 
	C439.172943,446.657135 454.948425,463.059143 474.516388,462.771729 
	C493.835388,462.487976 509.762512,445.176636 508.115265,425.172699 
M605.451660,116.986694 
	C600.581665,124.319679 597.998596,131.981079 600.336914,141.013992 
	C604.009888,155.202744 617.568115,165.069458 632.110229,163.594833 
	C646.197021,162.166412 658.170105,149.209030 658.640808,134.883224 
	C659.012451,123.571701 651.272705,111.614754 641.001038,107.631966 
	C627.641357,102.451813 615.203918,105.561005 605.451660,116.986694 
M472.140594,256.567719 
	C497.052917,248.724060 513.967346,232.621246 523.484619,207.187775 
	C520.858093,208.168655 519.249817,208.595200 517.802490,209.336105 
	C498.254761,219.342819 478.793793,229.522049 459.151276,239.338272 
	C454.498413,241.663483 453.643158,244.205811 455.743530,248.739029 
	C461.063293,260.220612 457.662872,259.884064 472.140594,256.567719 
M673.299011,347.850922 
	C673.727844,342.619293 672.279236,340.385895 667.406860,340.247955 
	C658.765198,340.003204 650.109558,340.127930 641.462524,340.269623 
	C638.663818,340.315491 636.194275,341.445099 635.433044,344.525818 
	C634.065613,350.059570 638.332458,356.486359 644.042664,357.770355 
	C649.333008,358.959930 654.644592,357.876495 659.945068,358.005737 
	C667.998535,358.201965 670.142883,356.478821 673.299011,347.850922 
M646.324158,317.160553 
	C646.315125,319.376465 646.220581,321.949249 649.415161,321.584778 
	C653.820068,321.082184 658.605103,323.534149 662.603943,319.991913 
	C662.897888,319.731567 662.899292,319.052307 662.903076,318.566772 
	C662.938965,313.935394 662.972717,309.303650 662.946899,304.672363 
	C662.937927,303.062988 662.399780,301.556244 660.524475,301.506165 
	C656.246460,301.391907 651.485840,300.057739 647.827698,302.066193 
	C644.474243,303.907379 646.826660,308.459045 646.358276,311.774811 
	C646.152039,313.234924 646.323364,314.748322 646.324158,317.160553 
z"/>
<path fill="#000000" opacity="1.000000" stroke="none" 
	d="
M415.109070,236.092316 
	C405.445984,245.066589 392.941101,245.731979 384.192810,238.003052 
	C375.486511,230.311264 373.908600,215.932007 380.760162,206.722672 
	C387.925323,197.091843 401.902252,194.963928 411.929962,201.977295 
	C421.477600,208.654907 424.168060,222.691223 417.779663,232.658447 
	C417.065247,233.773102 416.159668,234.765274 415.109070,236.092316 
z"/>
<path fill="#000000" opacity="1.000000" stroke="none" 
	d="
M460.798096,443.265747 
	C451.688782,432.912628 453.242676,417.837372 463.737854,411.895935 
	C472.007416,407.214355 483.571075,409.330231 489.084930,416.533783 
	C495.087616,424.375885 494.497345,436.002136 487.759460,442.640472 
	C480.359741,449.930908 469.912506,450.275726 460.798096,443.265747 
z"/>
<path fill="#000000" opacity="1.000000" stroke="none" 
	d="
M641.718384,143.441574 
	C635.602356,150.463837 628.013428,152.088959 621.050293,148.150391 
	C614.751648,144.587692 611.929260,136.100098 614.542725,128.580795 
	C616.835999,121.982964 624.312988,117.771347 631.808716,119.049606 
	C641.531311,120.707634 648.407959,131.923401 641.718384,143.441574 
z"/>
</svg>